<svg viewBox="0 0 870 670" xmlns="http://www.w3.org/2000/svg"><g fill="none" fill-rule="evenodd"><ellipse fill="#9FA1A7" opacity=".1" cx="479" cy="648" rx="102" ry="22"/><path d="M845.5277 568.4584c-20.2268 16.793-49.0095 23.743-76.8452 28.1324l-4.685.715c-48.6522 7.2658-98.2847 8.7456-147.6845 10.2087-137.783 4.0819-275.9233 8.1554-413.3408-1.2553-60.7717-4.1567-169.174-252.2458-165.1868-259.3204 24.92-44.3684 26.1246-95.7013 0-138.457a190.0269 190.0269 0 0 0-11.1559-15.7953c-6.3712-8.3133-12.8504-16.6267-17.228-25.8296-10.209-21.4152-8.016-45.499-4.2946-68.3773C10.091 68.061 19.27 35.2981 47.7867 16.2938 77.4167-3.4422 119.4734-2.4445 156.247 4.655c57.175 10.9653 109.9473 33.9185 163.218 54.6187 53.2709 20.7003 109.1084 39.555 167.6789 41.5834 51.7174 1.804 112.0489-11.6387 146.3887-46.6213 33.3514-33.96 96.0253-36.5288 141.2137-16.0198 43.12 19.5696 71.0056 60.9868 68.9455 102.354-2.625 51.626-45.6286 92.9682-79.6611 136.921-5.6569 7.3074-11.0728 14.698-16.0153 22.2132-16.1316 24.5494-27.5367 54.0368-16.4307 80.5398 6.23 14.8393 18.117 26.1621 32.446 36.0467 32.1053 22.1384 76.4215 37.036 96.3575 68.0282 17.17 26.7357 10.807 62.8157-14.8606 84.1394z" fill="#D6DDE5" opacity=".1"/><ellipse fill-opacity=".1" fill="#9FA1A7" cx="764" cy="587" rx="47" ry="9"/><ellipse fill="#B7BFCB" cx="763.5" cy="581" rx="5.5" ry="8"/><ellipse fill="#B7BFCB" cx="763.5" cy="572" rx="5.5" ry="8"/><ellipse fill="#B7BFCB" cx="763.5" cy="562" rx="5.5" ry="8"/><ellipse fill="#B7BFCB" cx="763.5" cy="555" rx="5.5" ry="8"/><ellipse fill="#B7BFCB" cx="763.5" cy="546" rx="5.5" ry="8"/><ellipse fill="#3F3D56" cx="763.5" cy="529" rx="5.5" ry="8"/><path d="M784.3132 468.7043a25.7006 25.7006 0 0 0 2.0563-3.0183l-14.5188-2.3716 15.701.1161a26.2574 26.2574 0 0 0 .5078-20.8963l-21.0707 10.9042 19.4306-14.2211c-4.9488-8.566-14.291-13.6565-24.202-13.1875-9.9109.469-18.7265 6.4188-22.8377 15.4135-4.1112 8.9948-2.8277 19.5242 3.325 27.2776a26.1463 26.1463 0 0 0-3.022 4.8095l18.848 9.76-20.0967-6.7168c-2.8704 8.442-1.2638 17.757 4.2708 24.7605-8.5325 10.8111-7.2913 26.3383 2.8511 35.6684 10.1424 9.33 25.7804 9.33 35.9228 0 10.1424-9.33 11.3836-24.8573 2.8512-35.6684 7.5601-9.5639 7.5601-23.041 0-32.6049l-.0167-.0249z" fill="#E6E7E8"/><g opacity=".2" transform="translate(110 5)"><path d="M101.5277 455.9206c0 .7803-.084 1.5439-.168 2.2909a396.0915 396.0915 0 0 1-19.257-8.2421c-3.3615-.4376-6.4875-1.9438-8.906-4.2912-1.84-.913-3.6716-1.8592-5.4948-2.8138a22.183 22.183 0 0 1 1.3947-2.49c3.5288-5.528 8.906-8.9891 14.8292-8.7982 5.9233.191 11.0484 3.9675 14.2243 9.678 2.4337 4.5023 3.6 9.5672 3.3776 14.6664z" fill="#3F3D56"/><path d="M102.5023 426.9364c-.1212 5.0847-1.6088 10.0462-4.3102 14.376-3.5371 5.5112-8.9059 8.9724-14.8292 8.7815-.4117 0-.8402-.0498-1.2182-.083-3.3615-.4376-6.4875-1.9438-8.906-4.2912a21.0055 21.0055 0 0 1-4.1-5.2872c-4.8307-9.1825-4.4807-20.186.9241-29.0506 3.5372-5.528 8.906-8.9891 14.8293-8.7982 5.9232.1909 11.0484 3.9675 14.2242 9.678 2.4342 4.5054 3.6033 9.5723 3.386 14.6747z" fill="#3F3D56"/><ellipse fill="#3F3D56" transform="rotate(-88.19 85.0292 397.32)" cx="85.0292" cy="397.32" rx="23.7637" ry="18.3746"/><ellipse fill="#3F3D56" transform="rotate(-88.19 85.9555 368.291)" cx="85.9555" cy="368.2909" rx="23.7637" ry="18.3746"/><ellipse fill="#3F3D56" transform="rotate(-88.19 86.8816 339.2619)" cx="86.8816" cy="339.2619" rx="23.7637" ry="18.3746"/><path d="M24.4661 138.472a87.659 87.659 0 0 1-6.5198-10.1595l48.4953-6.3247-52.1585-1.245c-9.4192-22.0584-9.2308-46.9747.521-68.8916L83.699 89.9076 20.5593 40.978C37.972 13.396 69.5052-2.286 102.3035.3248c32.7984 2.6107 61.383 23.0781 74.1011 53.0584 12.718 29.9802 7.445 64.4652-13.6696 89.3965a87.0129 87.0129 0 0 1 9.5024 16.1522l-63.6606 30.196 67.4919-20.0615c8.627 28.1207 2.3074 58.6433-16.8037 81.1592 27.237 36.5077 21.4935 87.5655-13.1922 117.2751-34.6857 29.7097-86.661 28.0903-119.3828-3.7196-32.7217-31.8098-35.197-83.1237-5.6854-117.8633-24.098-32.3038-22.6815-76.7054 3.428-107.4459h.0335z" fill="#9FA1A7"/><path d="M179.8411 197.0878c-.5944 19.4861-7.8296 38.2036-20.534 53.1212 27.2225 36.5076 21.474 87.5532-13.205 117.2574-34.6792 29.7042-86.643 28.0919-119.367-3.7037-32.7238-31.7955-35.2185-83.0969-5.7305-117.845-11.2837-15.1478 159.1474-58.5826 158.8365-48.83z" fill="#000" opacity=".1"/></g><g opacity=".2" transform="translate(549 73)"><path d="M71.8167 325.9271c0 .5578-.0584 1.0989-.1167 1.665a233.6757 233.6757 0 0 1-13.5917-5.8774 11.0961 11.0961 0 0 1-6.2916-3.0635 340.9206 340.9206 0 0 1-3.875-2.0063c.291-.6107.6194-1.2029.9833-1.7732 2.5-3.946 6.2833-6.4102 10.4667-6.277 4.1833.1332 7.8 2.8305 10.0416 6.9097a20.379 20.379 0 0 1 2.3834 10.4227z" fill="#3F3D56"/><path d="M72.5 305.2065a20.4308 20.4308 0 0 1-3.0417 10.2646c-2.5 3.9293-6.2833 6.4018-10.4666 6.2686l-.8334-.0583a11.096 11.096 0 0 1-6.2916-3.0635 15.2529 15.2529 0 0 1-2.8917-3.7795c-3.3987-6.5484-3.1527-14.3895.65-20.7123 2.5-3.946 6.2917-6.4185 10.4667-6.2853 4.175.1332 7.8083 2.8305 10.0416 6.9097a20.4205 20.4205 0 0 1 2.3667 10.456z" fill="#3F3D56"/><ellipse fill="#3F3D56" transform="rotate(-88.19 60.2084 284.1015)" cx="60.2084" cy="284.1015" rx="16.9578" ry="12.9666"/><ellipse fill="#3F3D56" transform="rotate(-88.19 60.8563 263.3844)" cx="60.8563" cy="263.3844" rx="16.9578" ry="12.9666"/><ellipse fill="#3F3D56" transform="rotate(-88.19 61.5121 242.6676)" cx="61.5121" cy="242.6676" rx="16.9578" ry="12.9666"/><path d="M17.425 99.374a61.2375 61.2375 0 0 1-4.6-7.251l34.2333-4.512-36.8416-.8908a62.1039 62.1039 0 0 1 .3583-49.175l48.5917 27.1307-44.5-34.9062C26.9087 9.9787 49.2026-1.3105 72.4184.5255c23.2158 1.836 43.4539 16.4887 52.4263 37.9575 8.9725 21.4688 5.1721 46.1475-9.8447 63.9296a62.18 62.18 0 0 1 6.7167 11.5383l-44.9084 21.553 47.6417-14.3187c6.1012 20.068 1.6437 41.8569-11.85 57.9244 19.2172 26.057 15.1601 62.4928-9.3192 83.694-24.4794 21.2011-61.159 20.0467-84.254-2.6519C-4.068 237.4532-5.821 200.8345 15 176.0377-1.9877 152.983-.986 121.3115 17.425 99.374z" fill="#9FA1A7"/><path d="M127.1 141.1815c-.4174 13.9137-5.5269 27.2787-14.5 37.9281 19.2172 26.057 15.1601 62.4928-9.3192 83.694-24.4794 21.2011-61.159 20.0467-84.254-2.6519C-4.068 237.4532-5.821 200.8345 15 176.0377c-7.9833-10.8223 112.3167-41.8158 112.1-34.8562z" fill="#000" opacity=".1"/></g><g opacity=".2" transform="translate(371 9)"><path d="M71.6667 325.8855c0 .5577-.0667 1.0989-.125 1.665A233.675 233.675 0 0 1 57.95 321.673a11.071 11.071 0 0 1-6.2833-3.0636c-1.3-.6576-2.5917-1.332-3.875-2.0063a15.8124 15.8124 0 0 1 .975-1.7731c2.5-3.9377 6.2916-6.4102 10.4666-6.277 4.175.1332 7.8 2.8305 10.0417 6.9096a20.379 20.379 0 0 1 2.3917 10.4228z" fill="#3F3D56"/><path d="M72.2833 305.1649a20.4308 20.4308 0 0 1-3.0416 10.2645c-2.5 3.9294-6.2834 6.4019-10.4667 6.2687-.2917 0-.5667 0-.8333-.0583a11.071 11.071 0 0 1-6.2834-3.0636 15.0781 15.0781 0 0 1-2.9-3.7794c-3.401-6.5487-3.1517-14.3924.6584-20.7123 2.5-3.946 6.2833-6.4185 10.4666-6.2853 4.1834.1332 7.8 2.8304 10 6.9096a20.4123 20.4123 0 0 1 2.4 10.456z" fill="#3F3D56"/><ellipse fill="#3F3D56" transform="rotate(-88.282 59.3493 283.2743)" cx="59.3492" cy="283.2743" rx="16.9654" ry="12.9725"/><ellipse fill="#3F3D56" transform="rotate(-88.19 60.6513 263.3414)" cx="60.6513" cy="263.3414" rx="16.9578" ry="12.9666"/><ellipse fill="#3F3D56" transform="rotate(-88.19 61.3158 242.6163)" cx="61.3157" cy="242.6163" rx="16.9578" ry="12.9666"/><path d="M17.2333 99.299a62.3195 62.3195 0 0 1-4.6-7.2509l34.2334-4.512L10 86.6452a62.0623 62.0623 0 0 1 .3667-49.175l48.6083 27.164-44.4917-34.9062C26.7623 10.0227 49.0235-1.1894 72.1842.6666c23.1607 1.856 43.3481 16.4695 52.3258 37.8784 8.9777 21.4088 5.2444 46.033-9.6767 63.826a62.2217 62.2217 0 0 1 6.725 11.5382l-44.8916 21.5531L124.3 121.1436c6.1012 20.068 1.6437 41.8569-11.85 57.9244 19.1927 26.066 15.1138 62.4898-9.3704 83.6745-24.4842 21.1848-61.1537 20.0186-84.2394-2.6791-23.0857-22.6978-24.8371-59.3069-4.0235-84.1006-17.0016-23.0615-16.0031-54.7493 2.4166-76.697v.0333z" fill="#9FA1A7"/><path d="M126.9083 141.1399c-.4174 13.9137-5.5268 27.2787-14.5 37.9281 19.2117 26.0629 15.1441 62.4997-9.343 83.6942-24.4872 21.1945-61.1685 20.0274-84.2559-2.6809-23.0874-22.7082-24.8257-59.3297-3.9927-84.1185C6.825 165.1821 127.125 134.1803 126.9083 141.14z" fill="#000" opacity=".1"/></g><path d="M764.8365 414.8666v180.4818c-48.6188 7.2448-98.2172 8.7202-147.583 10.1791-137.6883 4.07-275.7335 8.1318-413.0566-1.2516C143.467 600.1312 53.467 593.818.241 569V345.7012c.1993-153.351-.6308 0 0-153.8153v-55.198C.241 130.2328 5.4813 125 11.9454 125h741.1867c6.4641 0 11.7044 5.2328 11.7044 11.6878v139.7816c.498 138.0325-.332.431 0 138.3972z" fill="#F4F4F6"/><rect fill="#BCC4CF" opacity=".3" x="242" y="181" width="307" height="23" rx="5.22"/><path d="M532.8406 195.8864h-.5019l-.1892-.1573a4.2364 4.2364 0 0 0 .979-2.69c-.0272-2.2537-1.862-4.0602-4.1024-4.039-2.2403.0213-4.041 1.8623-4.026 4.1161.015 2.2538 1.8401 4.0703 4.0805 4.0614a4.1728 4.1728 0 0 0 2.6657-.9767l.181.1573v.48L535.0621 200l.9379-.9436-3.1594-3.17zm-3.76 0c-1.1455.0033-2.18-.6883-2.6207-1.752-.4407-1.0636-.2006-2.2896.6082-3.1057.8088-.816 2.0268-1.0611 3.0855-.6209 1.0586.4402 1.749 1.479 1.749 2.6313a2.8394 2.8394 0 0 1-.8212 2.0153 2.8053 2.8053 0 0 1-2.0008.832z" fill="#9FA1A7" fill-rule="nonzero"/><rect fill-opacity=".2482" fill="#2B6BE9" opacity=".7" x="142" y="409" width="29" height="11" rx="5"/><rect fill="#9FA1A7" opacity=".3" x="143" y="433" width="44" height="11" rx="5"/><rect fill="#9FA1A7" opacity=".3" x="143" y="421" width="89" height="11" rx="5"/><path d="M93.419 434.7213c-1.327-.0136-2.6049.4882-3.5521 1.3947-.9473.9065-1.486 2.1433-1.4976 3.4377-.0424 1.7866-1.5372 3.2146-3.3693 3.2187 1.629 2.0114 4.1023 3.1974 6.73 3.2272 1.771.0182 3.477-.6508 4.7424-1.8597 1.2654-1.2089 1.9866-2.8586 2.005-4.5862-.0138-1.2952-.5545-2.532-1.5031-3.4382-.9487-.9063-2.2276-1.4078-3.5553-1.3942zm23.0979-15.083l-2.2637-2.1657c-.6572-.6301-1.711-.6301-2.3681 0l-15.0968 14.4376 4.6318 4.4332 15.0793-14.4376c.3167-.2952.4973-.7029.5006-1.1301.0032-.4273-.171-.8376-.4831-1.1374z" fill="#BCC4CF" fill-rule="nonzero"/><rect fill-opacity=".2482" fill="#2B6BE9" opacity=".7" x="142" y="285" width="29" height="11" rx="5"/><rect fill="#9FA1A7" opacity=".3" x="143" y="312" width="44" height="11" rx="5"/><rect fill="#9FA1A7" opacity=".3" x="143" y="300" width="89" height="11" rx="5"/><path d="M116.5792 316.149l-13.2273-13.2964c1.341-3.4944.4824-7.4503-2.1871-10.0766-2.8396-2.8124-7.1293-3.5686-10.7614-1.897l6.2564 6.2827-4.3568 4.3508-6.3784-6.2478c-1.7385 3.6342-.9794 7.9694 1.8908 10.7989 2.5981 2.6772 6.5488 3.541 10.0295 2.1928l13.2012 13.305a1.4038 1.4038 0 0 0 2.039 0l3.346-3.3589a1.313 1.313 0 0 0 .1481-2.045v-.0086z" fill="#BCC4CF"/><rect fill-opacity=".2482" fill="#2B6BE9" opacity=".7" x="380" y="409" width="29" height="11" rx="5"/><rect fill="#9FA1A7" opacity=".3" x="379" y="433" width="44" height="11" rx="5"/><rect fill="#9FA1A7" opacity=".3" x="381" y="421" width="89" height="11" rx="5"/><path d="M338.1045 437.0182c-2.5423 1.426-5.6585 1.426-8.2007 0-3.209.9729-5.1741 4.1613-5.9038 6.9818h20c-.7214-2.8205-2.6783-6.009-5.8955-6.9818zM334.0083 422c-2.9152 0-5.5431 1.7318-6.658 4.3876-1.1147 2.6557-.4967 5.712 1.5658 7.7433 2.0625 2.0312 5.1631 2.637 7.8554 1.5348 2.6923-1.1022 4.4458-3.6952 4.4424-6.5695-.0045-3.9204-3.2293-7.0962-7.2056-7.0962zm0 12.5084c-2.2108-.0419-4.1867-1.3706-5.0332-3.3847h10.0664c-.8466 2.0141-2.8224 3.3428-5.0332 3.3847z" fill="#BCC4CF" fill-rule="nonzero"/><path d="M348.7632 431.4059c-2.2496 1.2109-4.942 1.4219-7.3685.5774-.5399.8917-1.2203 1.699-2.0175 2.3933 1.7775.7747 3.2736 2.036 4.2982 3.6234H355c-.7125-3.0945-3.0831-5.601-6.2368-6.5941zm-4.3334-15.3808c-2.6007-.001-5.0234 1.2603-6.4298 3.3473 2.3285 1.2876 3.9716 3.4607 4.5175 5.9749h7.2369c-.9027 2.0536-2.9907 3.4055-5.3246 3.4477a5.4894 5.4894 0 0 1-1.8245-.318 9.39 9.39 0 0 1-.4737 1.7322 7.6502 7.6502 0 0 0 2.2982.3347c4.21 0 7.6228-3.2557 7.6228-7.272 0-4.0161-3.4128-7.2719-7.6228-7.2719v.0251z" fill="#BCC4CF" fill-rule="nonzero"/><rect fill-opacity=".2482" fill="#2B6BE9" opacity=".7" x="142" y="501" width="29" height="11" rx="5"/><rect fill="#9FA1A7" opacity=".3" x="143" y="526" width="44" height="11" rx="5"/><rect fill="#9FA1A7" opacity=".3" x="143" y="513" width="89" height="11" rx="5"/><path d="M103.6291 503.0002h-7.836c-.694-.009-1.3632.2759-1.86.7922-.4969.5163-.7807 1.2216-.7891 1.9608v.5948h-.4948c-.6941-.0091-1.3633.2759-1.8601.7922-.4968.5163-.7807 1.2216-.7891 1.9608v20.078c.0087 1.5542 1.1897 2.8117 2.6492 2.821h13.6291c.6935-.009 1.355-.3115 1.8387-.8408.4836-.5293.7494-1.2418.7387-1.9802v-.5268h.5666c.6934-.009 1.355-.3114 1.8386-.8407.4836-.5293.7494-1.2418.7388-1.9802v-13.9094l-8.3706-8.9217zm0 3.1099l5.458 5.8118h-5.458v-5.8118zm3.144 23.069c.0137.3082-.2057.572-.4948.5947h-13.629c-.3002-.0173-.5388-.275-.5507-.5948v-20.078c.0213-.3044.2641-.5368.5506-.5268h.4948v17.8434c0 1.5464.6862 2.2601 2.1305 2.2601h11.4986v.5013zm3.136-3.3478c.0182.3068-.1989.572-.4868.5948H95.7932c-.3002-.0173-.5387-.275-.5506-.5948v-20.0781c.0212-.3044.2641-.5368.5506-.5268h5.7373v8.9302h8.3785v11.6747z" fill="#BCC4CF" fill-rule="nonzero"/><rect fill-opacity=".2482" fill="#2B6BE9" opacity=".7" x="380" y="285" width="29" height="11" rx="5"/><rect fill="#9FA1A7" opacity=".3" x="379" y="312" width="44" height="11" rx="5"/><rect fill="#9FA1A7" opacity=".3" x="381" y="300" width="89" height="11" rx="5"/><path d="M335.9532 293.0167h-9.9064c-1.6841.0047-3.0468 1.3189-3.0468 2.9384v16.115c0 1.6181 1.364 2.9299 3.0468 2.9299h25.9064c1.6827 0 3.0468-1.3118 3.0468-2.93v-12.8417c-.0048-1.6163-1.366-2.9254-3.0468-2.93H339L335.9532 293v.0167z" fill="#BCC4CF"/><rect fill-opacity=".2482" fill="#2B6BE9" opacity=".7" x="615" y="409" width="29" height="11" rx="5"/><rect fill="#9FA1A7" opacity=".3" x="615" y="433" width="44" height="11" rx="5"/><rect fill="#9FA1A7" opacity=".3" x="616" y="421" width="89" height="11" rx="5"/><path d="M590.4303 423.9647l-5.9005-.2537-.3486-3.4973c-.0395-.3584-.235-.6875-.5428-.914-.3078-.2264-.7024-.3313-1.0958-.2914l-21.153 1.586c-.3925.0163-.7613.1762-1.0223.4436-.261.2673-.392.6193-.3634.976l1.5078 15.3451c.0956.7371.828 1.2653 1.6385 1.1816l1.072-.0714-.1655 2.9818c-.0141.396.1466.7808.4462 1.0683.2997.2875.7133.454 1.1487.4623l23.6108 1.015c.8992.0545 1.678-.562 1.7431-1.3798l.9936-17.1294c.0141-.3913-.1433-.7716-.4376-1.0572-.2942-.2856-.7012-.453-1.1312-.4655zm-25.38.349l-.5056 8.7709-1.255 1.586-1.1505-11.5861v-.0714c.0457-.3214.326-.5732.6798-.6106l18.669-1.3878c.358-.0312.6845.1873.7583.5075l.183 1.9984-15.6882-.682c-.4392-.0085-.8642.1422-1.1813.4188-.317.2767-.5004.6566-.5095 1.0563zm23.881 15.4165l-6.101-6.479-2.6758 2.2363-4.9418-5.2578-8.7767 8.5012.7496-12.9501c.0864-.3676.46-.6192.8716-.5869l20.8304.92c.3988.008.7226.2956.7409.6582l-.6973 12.958z" fill="#BCC4CF" fill-rule="nonzero"/><path d="M582.9924 430A2 2 0 1 0 581 428c.0041 1.0999.8925 1.9917 1.9924 2z" fill="#BCC4CF"/><rect fill-opacity=".2482" fill="#2B6BE9" opacity=".7" x="617" y="285" width="29" height="11" rx="5"/><rect fill="#9FA1A7" opacity=".3" x="616" y="312" width="44" height="11" rx="5"/><rect fill="#9FA1A7" opacity=".3" x="616" y="300" width="89" height="11" rx="5"/><circle fill="#EB4969" cx="590.5" cy="295.5" r="4.5"/><path d="M587.064 301.0301l-9.0684 5.5232-12.5667-7.656v-2.7935l12.5667 7.664 7.2233-4.401c-1.3913-1.9232-1.4254-4.4125-.087-6.3668h-20.0772c-1.6851.0044-3.05 1.2525-3.0547 2.7934v17.4132c.0048 1.541 1.3696 2.789 3.0547 2.7934h25.8993c1.6837-.0044 3.046-1.2538 3.046-2.7934v-12.097c-2.129 1.2377-4.8537 1.219-6.9622-.0477l.0261-.0318z" fill="#2B6BE9"/><g transform="translate(358 547)"><ellipse fill-opacity=".1" fill="#9FA1A7" cx="22" cy="73" rx="22" ry="3"/><ellipse fill="#B7BFCB" cx="22" cy="67.5" rx="2" ry="2.5"/><ellipse fill="#B7BFCB" cx="22" cy="70.5" rx="2" ry="2.5"/><ellipse fill="#B7BFCB" cx="22" cy="64.5" rx="2" ry="2.5"/><ellipse fill="#B7BFCB" cx="22" cy="61.5" rx="2" ry="2.5"/><ellipse fill="#B7BFCB" cx="22" cy="57.5" rx="2" ry="2.5"/><ellipse fill="#B7BFCB" cx="22" cy="53.5" rx="2" ry="2.5"/><path d="M31.5174 19.5572c.3293-.4381.6272-.9013.8913-1.3858l-6.31-1.087 6.799.058c1.3173-3.0196 1.3972-6.476.2209-9.5594l-9.1258 4.9789 8.416-6.514C30.2641 2.127 26.2152-.2023 21.9203.0139c-4.2948.2161-8.1139 2.9416-9.8928 7.0599-1.7789 4.1183-1.2187 8.9374 1.4512 12.4834a12.655 12.655 0 0 0-1.3094 2.199l8.1715 4.4643-8.6763-3.0703c-1.2446 3.8611-.5503 8.1224 1.8457 11.3269-3.6968 4.9465-3.1595 12.0515 1.2342 16.3209 4.3938 4.2693 11.1686 4.2693 15.5624 0 4.3938-4.2694 4.931-11.3744 1.2342-16.3209 3.2785-4.3815 3.2785-10.555 0-14.9365l-.0237.0166z" fill="#E6E7E8"/></g><path d="M486.3074 343.2467c.0844 3.2733 1.1976 6.4453 1.3663 9.7186-9.6395.4809-19.1608-4.2181-28.6737-2.7671 2.6734-1.7294 4.0986-4.8424 4.942-7.9048a32.8275 32.8275 0 0 0 .9361-12.1566 5.5781 5.5781 0 0 0-.118-.6664c-.3543-1.603-1.2735-3.8723-1.029-5.1293.329-1.6872 1.8976-1.3413 3.3144-1.2485 4.3157.3425 8.6112.9056 12.8694 1.6872 1.1132.194 11.9164 2.8936 12.0851 2.6153a50.363 50.363 0 0 0-4.6806 9.6426 18.8354 18.8354 0 0 0-1.012 6.209z" fill="#D4DBE3"/><path d="M580.0494 329.7965c-.8512 1.046-1.8718 1.9713-3.028 2.7454-.7547.5538-1.5269 1.1231-2.3338 1.63-1.4389 1.0013-3.155 1.6297-4.9626 1.8173-2.3598.1404-7.3832-1.1075-8.8494-2.9247-.6273-.9136-.93-1.9774-.8676-3.0496.0241-1.449.2992-2.8857.8156-4.2585.9187-2.241 2.2086-4.3446 3.826-6.2395 1.7352-2.137 3.6092-4.235 6.1512-5.5297a25.061 25.061 0 0 1 2.6028-1.0841l4.6243-1.7003a2.3644 2.3644 0 0 1 .8676-.2028c1.2406 0 1.4662 1.7159.7634 2.6362-1.4055 1.8562-4.5722 2.3398-5.4658 4.469 1.5376.0435 2.8689.9726 3.2969 2.3009.0356.3434.1904.668.4424.928.4078.2887 1.0498.1249 1.5096.351.8242.39.4599 1.4897.5466 2.3399.206.7224.4969 1.423.8676 2.0902.3497 1.274.0543 2.6218-.8068 3.6813z" fill="#D6DDE5"/><path d="M451 652.1035c.7434-.7372 1.96-.6116 2.999-.4524A112.423 112.423 0 0 0 470.853 653c.7096-3.4183-1.3433-6.7026-2.0022-10.1711a8.9553 8.9553 0 0 0-.6759-2.5805c-.794-1.508-2.585-2.2035-4.2662-2.5135-3.0328-.6367-7.7806-1.751-9.4787 1.2903-2.036 3.611-2.6865 9.0065-3.4299 13.0783z" fill="#B7BFCB"/><path d="M509.7822 638.303c-2.2507 1.453-5.0411 1.9007-7.7485 2.2306-2.7074.3299-5.4895.5812-7.9478 1.72-2.1094.9896-3.895 2.6075-6.1373 3.3144a13.4216 13.4216 0 0 1-6.3699.0943c-2.4914-.4477-5.1988-1.3117-6.5525-3.3694-1.2126-1.8221-1.088-4.139-.9219-6.2832.1993-2.427.3904-4.8695.573-7.3043-.0082-.6165.158-1.224.4817-1.7593 1.8188-2.5132 6.2453 1.0446 8.6122 1.0446 3.7538 0 7.7817-1.932 10.4808-4.2804a3.2256 3.2256 0 0 1 .8305-.5812c1.0713-.4555 2.1427.3848 3.0894 1.1153l.324.2434c2.1924 1.6415 5.1323 1.9792 7.8397 2.6468 2.7074.6676 5.6058 2.0028 6.4446 4.5318.056.1566.1003.3167.133.4791.4733 2.317-1.0465 4.791-3.131 6.1575z" fill="#3F3D56"/><path d="M509.7822 638.303c-2.2507 1.453-5.0411 1.9007-7.7485 2.2306-2.7074.3299-5.4895.5812-7.9478 1.72-2.1094.9896-3.895 2.6075-6.1373 3.3144a13.4216 13.4216 0 0 1-6.3699.0943c-2.4914-.4477-5.1988-1.3117-6.5525-3.3694-1.2126-1.8221-1.088-4.139-.9219-6.2832.1993-2.427.3904-4.8695.573-7.3043-.0082-.6165.158-1.224.4817-1.7593 1.8188-2.5132 6.2453 1.0446 8.6122 1.0446 3.7538 0 7.7817-1.932 10.4808-4.2804a3.2256 3.2256 0 0 1 .8305-.5812c1.0713-.4555 2.1427.3848 3.0894 1.1153l.324.2434c2.1924 1.6415 5.1323 1.9792 7.8397 2.6468 2.7074.6676 5.6058 2.0028 6.4446 4.5318.056.1566.1003.3167.133.4791.4733 2.317-1.0465 4.791-3.131 6.1575z" fill="#384965"/><path d="M509.581 638.567c-2.2379 1.4032-5.0127 1.843-7.7048 2.1616-2.6922.3186-5.4587.5537-7.9032 1.6535-2.0976.9557-3.873 2.5181-6.1028 3.2007-2.0687.5235-4.2485.5549-6.334.091-2.664-.513-5.0032-1.9642-6.5158-4.0426-1.2057-1.7596-1.0818-3.9971-.9167-6.0677.1982-2.3437.3882-4.7025.5699-7.0537-.0083-.5955.157-1.182.479-1.699 1.8085-2.427 6.2101 1.0088 8.5637 1.0088 3.7327 0 7.738-1.8659 10.4219-4.1337a3.21 3.21 0 0 1 .8258-.5612c1.0653-.44 2.1306.3716 3.072 1.077-.618 1.7616-1.499 3.4361-2.6178 4.9755-1.8328 2.64-4.8696 4.3748-8.2582 4.7177-1.6517.1137-3.3776-.1896-4.955.2048-1.5773.3944-3.1133 1.9113-2.5435 3.3524.5698 1.441 2.527 1.7065 4.1291 1.79 2.2702.2395 4.569.0904 6.78-.44 1.3214-.402 2.5353-1.0694 3.8153-1.5624 5.467-2.0782 12.3874-.9177 16.8964-4.437.4304-.3573.8916-.682 1.3791-.9709 1.1975 2.2679-1.0075 5.4534-3.0803 6.7352z" fill="#E8EAF2"/><path d="M509.581 638.567c-2.2379 1.4032-5.0127 1.843-7.7048 2.1616-2.6922.3186-5.4587.5537-7.9032 1.6535-2.0976.9557-3.873 2.5181-6.1028 3.2007-2.0687.5235-4.2485.5549-6.334.091-2.664-.513-5.0032-1.9642-6.5158-4.0426-1.2057-1.7596-1.0818-3.9971-.9167-6.0677.1982-2.3437.3882-4.7025.5699-7.0537-.0083-.5955.157-1.182.479-1.699 1.8085-2.427 6.2101 1.0088 8.5637 1.0088 3.7327 0 7.738-1.8659 10.4219-4.1337a3.21 3.21 0 0 1 .8258-.5612c1.0653-.44 2.1306.3716 3.072 1.077-.618 1.7616-1.499 3.4361-2.6178 4.9755-1.8328 2.64-4.8696 4.3748-8.2582 4.7177-1.6517.1137-3.3776-.1896-4.955.2048-1.5773.3944-3.1133 1.9113-2.5435 3.3524.5698 1.441 2.527 1.7065 4.1291 1.79 2.2702.2395 4.569.0904 6.78-.44 1.3214-.402 2.5353-1.0694 3.8153-1.5624 5.467-2.0782 12.3874-.9177 16.8964-4.437.4304-.3573.8916-.682 1.3791-.9709 1.1975 2.2679-1.0075 5.4534-3.0803 6.7352z" fill="#000" opacity=".05"/><path d="M449.6784 472.9666c-1.753 8.6193-.0781 17.5791 4.6724 24.9948 1.298 1.9996 2.822 3.8826 3.8016 6.0571a28.0317 28.0317 0 0 1 1.4821 4.8073l4.1868 17.3298c1.1388 4.6824 2.286 9.448 1.9427 14.2554-.2345 3.3327-1.0886 7.1069.988 9.7563a7.0501 7.0501 0 0 1 1.2478 1.708 4.27 4.27 0 0 1 0 2.2495c-2.127 12.5891-3.7095 25.7447.134 37.9172 3.4917 11.0394 3.6927 23.2702 6.657 34.4513a7.6823 7.6823 0 0 0 1.8337 3.8242 6.1009 6.1009 0 0 0 2.7633 1.2997c4.371 1.0415 8.9849-.175 13.0544-2.0496 2.8638-1.3247 5.9453-3.6409 5.7024-6.7652-.1172-1.4914-.988-2.7995-1.5826-4.1659-1.1639-2.691-1.256-5.6904-1.5742-8.6065-.7871-7.3152-3.0564-14.3804-4.7646-21.529-1.7082-7.1484-2.8805-14.6386-1.4318-21.8537a190.774 190.774 0 0 1 14.1262-43.2411 5.2223 5.2223 0 0 1 1.2979-1.933 14.1215 14.1215 0 0 0 1.8338-1.2414 5.5315 5.5315 0 0 0 .8374-2.2662c.6364-2.2828 2.512-3.9741 3.7932-5.9737 3.207-5.0657 2.1939-11.556 2.0766-17.538-.1172-5.8322.7202-11.6643-.2344-17.4298-.9546-5.7655-4.2203-11.6143-9.7887-13.3806-2.755-.8915-5.736-.6832-8.6164-.4-15.265 1.4998-30.103 4.2575-44.4386 9.723z" fill="#B7BFCB"/><path d="M449.6784 472.9666c-1.753 8.6193-.0781 17.5791 4.6724 24.9948 1.298 1.9996 2.822 3.8826 3.8016 6.0571a28.0317 28.0317 0 0 1 1.4821 4.8073l4.1868 17.3298c1.1388 4.6824 2.286 9.448 1.9427 14.2554-.2345 3.3327-1.0886 7.1069.988 9.7563a7.0501 7.0501 0 0 1 1.2478 1.708 4.27 4.27 0 0 1 0 2.2495c-2.127 12.5891-3.7095 25.7447.134 37.9172 3.4917 11.0394 3.6927 23.2702 6.657 34.4513a7.6823 7.6823 0 0 0 1.8337 3.8242 6.1009 6.1009 0 0 0 2.7633 1.2997c4.371 1.0415 8.9849-.175 13.0544-2.0496 2.8638-1.3247 5.9453-3.6409 5.7024-6.7652-.1172-1.4914-.988-2.7995-1.5826-4.1659-1.1639-2.691-1.256-5.6904-1.5742-8.6065-.7871-7.3152-3.0564-14.3804-4.7646-21.529-1.7082-7.1484-2.8805-14.6386-1.4318-21.8537a190.774 190.774 0 0 1 14.1262-43.2411 5.2223 5.2223 0 0 1 1.2979-1.933 14.1215 14.1215 0 0 0 1.8338-1.2414 5.5315 5.5315 0 0 0 .8374-2.2662c.6364-2.2828 2.512-3.9741 3.7932-5.9737 3.207-5.0657 2.1939-11.556 2.0766-17.538-.1172-5.8322.7202-11.6643-.2344-17.4298-.9546-5.7655-4.2203-11.6143-9.7887-13.3806-2.755-.8915-5.736-.6832-8.6164-.4-15.265 1.4998-30.103 4.2575-44.4386 9.723z" fill="#BCC4CF" opacity=".1"/><path d="M512.682 507.9278a36.909 36.909 0 0 1-.762 6.7635 2080.7681 2080.7681 0 0 1-8.6078 45.2577c-.268 1.3074-.5275 2.6149-.8792 3.8972a31.6742 31.6742 0 0 1-5.8614 11.482c-12.6857 15.8318-13.7826 38.821-20.6655 57.913-.469 1.2907-.9294 2.5898-1.4235 3.8637a97.0547 97.0547 0 0 1-4.2453 9.479 2.6985 2.6985 0 0 1-.8373 1.1314 2.577 2.577 0 0 1-1.3816.2766 40.4212 40.4212 0 0 1-17.8856-4.0732 3.7521 3.7521 0 0 1-1.9008-1.584 3.909 3.909 0 0 1-.201-1.8187c.1927-3.7799.4271-7.7022 2.2274-11.0295a23.6467 23.6467 0 0 1 4.4044-5.347 203.3 203.3 0 0 1 4.3207-35.3849c1.3397-5.9337 2.9976-11.9262 6.4391-16.938 2.512-3.7045 6.1796-7.3586 5.7274-11.8257-.1926-1.9612-1.0132-4.4.5778-5.5483.695-.5112 1.7249-.5783 2.2022-1.299a2.516 2.516 0 0 0 .3098-1.1063 27.3969 27.3969 0 0 0-.5694-9.1605 49.3105 49.3105 0 0 1-1.3649-5.9757 7.548 7.548 0 0 1 1.4989-5.7662c.0837-4.0815 0-8.314.0586-12.3872a22.783 22.783 0 0 0-.5778-6.9143c-.3014-1.0644-.7787-2.087-1.0132-3.1764-.8373-3.914 1.2728-8.6074-1.256-11.7335-1.055-1.2907-2.6794-1.936-4.061-2.8663a14.8429 14.8429 0 0 1-5.5767-8.0207 44.113 44.113 0 0 1-1.591-9.8393 9.4624 9.4624 0 0 1 0-2.1204 3.6484 3.6484 0 0 1 .2847-1.0644c.7871-1.7684 2.8972-2.4557 4.7812-2.9083a154.8983 154.8983 0 0 1 36.5164-4.2743c4.5551-3.101 7.109-1.9863 9.0432 1.2907a34.4556 34.4556 0 0 1 2.5707 6.2941c.8373 2.6652.9378 17.6003 1.7919 20.257 1.0885 3.4782-2.1352 10.602-2.0934 14.2562z" fill="#D6DDE5"/><path d="M431.43 372.8525c-.3491 2.331.8203 4.6203.9512 6.9762.1135 2.0562-.576 4.0625-.96 6.0854-1.536 7.892 1.405 15.8921 4.3636 23.4011.571 1.2176.9249 2.5174 1.0472 3.8461.0786 2.4475-1.3963 4.6952-1.8065 7.1177-.8727 5.0865 3.0807 9.865 3.168 14.9847 0 2.3726-.7506 4.7868-.1222 7.0761.4101 1.5318 1.4138 2.8554 2.1207 4.279 1.2654 2.4974 1.6057 5.4111 2.81 7.9668 2.1731 4.6203 6.8421 7.6422 11.293 10.4144 2.522-.8325 5.2362-1.7565 6.65-3.9293.6106-1.069 1.0043-2.2383 1.1607-3.4465.96-5.2696.925-10.6475.8727-15.992a94.22 94.22 0 0 0-.7244-13.7693c-.8727-5.8273-2.8712-11.405-4.2937-17.1241-1.7454-7.201-2.6967-14.6434-5.4806-21.5613-2.4523-6.0688-6.2573-11.5216-10.2718-16.7496-1.5272-1.9896-2.7403-4.8367-5.7075-4.3788-2.5816.4234-4.6087 2.3438-5.0704 4.8034z" fill="#B7BFCB"/><path d="M493 321.7713c-1.9467 3.3176-3.5555 6.8472-4.799 10.5286a21.3299 21.3299 0 0 1-5.4475.7c-7.1336 0-12.1747-4.32-16.3684-9.7824-.3632-1.7502-2.594-3.3806-2.3692-4.7531.3372-1.8423 1.9455-1.4647 3.3982-1.3633 4.425.374 8.829.9888 13.195 1.8423 1.1414.1473 12.218 3.1318 12.3909 2.8279z" fill="#000" opacity=".1"/><ellipse fill="#D4DBE3" cx="480.5" cy="312" rx="20.5" ry="23"/><path d="M510 469.3928c-3.855-.2474-7.7436-.0733-11.607.0917a36.7224 36.7224 0 0 0-7.2122.8065c-2.927.724-5.6601 2.1722-8.545 3.0796-4.6226 1.4572-9.4982 1.5214-14.281 2.0346A73.7448 73.7448 0 0 0 459 477a4.2623 4.2623 0 0 1 .2868-1.164c.793-1.9339 2.9186-2.6854 4.8166-3.1803 12.048-3.138 24.397-4.7071 36.7864-4.6743 4.5889-3.3454 7.1616-2.1722 9.1102 1.4114z" fill="#000" opacity=".1"/><path d="M495.0397 347.3861c-.9493 1.1132-2.2287 2.3435-3.632 1.9836a4.9968 4.9968 0 0 1-1.4199-.77c-2.4764-1.674-5.5966-2.0255-8.5518-2.511a124.3288 124.3288 0 0 1-17.6156-4.0174 17.8859 17.8859 0 0 0-5.217-1.0713c-3.6898 0-6.967 2.511-9.2782 5.4236-2.3114 2.9126-3.9623 6.3359-6.2323 9.2904-1.651 2.1091-3.5496 3.9672-5.0602 6.1517-3.8137 5.5157-4.6391 12.7136-3.6486 19.376.9906 6.6622 3.6073 12.9479 6.2158 19.1499a66.058 66.058 0 0 0 5.0684 10.4286c-.875 5.0219-.4127 10.8807 1.9646 15.4003.7677 1.4815 1.717 2.921 1.973 4.5783a11.7512 11.7512 0 0 1-.1322 3.3479l-1.1143 8.0014c-.3385 2.4356-.677 4.8712-1.1144 7.2984-.8255 4.4276-1.8821 9.2067.1403 13.241 2.4186 4.8041-.1238 10.9559.5118 16.3125 6.8214-2.6725 13.9693-4.3929 21.2476-5.1139 4.6804-.4687 9.4517-.5273 13.9752-1.858 2.8231-.837 5.4977-2.1511 8.362-2.8207a38.2827 38.2827 0 0 1 7.0578-.7281c5.2253-.2093 10.4835-.4269 15.684.3515.4127.067.9245.1004 1.1804-.2427a1.2439 1.2439 0 0 0 .1568-.6278c.0788-1.9644-.3843-3.9122-1.3372-5.6244-.6604-1.1801-1.5767-2.3352-1.552-3.691a5.4848 5.4848 0 0 1 .4541-1.833l2.2866-6.1936c1.9398-5.2311 1.0153-11.3075 2.0224-16.798a99.6222 99.6222 0 0 0 1.5023-12.9982c.1899-3.7246.0743-7.7588-2.1462-10.7384a12.2797 12.2797 0 0 1-1.651-2.3686 7.0699 7.0699 0 0 1-.3962-2.8206 333.3631 333.3631 0 0 1 .6026-22.364c-1.9316-3.5236-3.954-7.1226-5.8856-10.6462-2.2535-4.1012-4.5318-8.286-5.4398-12.8894-.6026-3.0382-.5861-6.1769-1.0154-9.2485a4.1371 4.1371 0 0 0-.7677-2.1678c-.8512-.7543-1.985-1.0937-3.1037-.929a13.4036 13.4036 0 0 0-4.0944.7365z" fill="#F0F0F0"/><path d="M576 335.2572c-1.5675.9545-3.437 1.5537-5.406 1.7325-2.5707.1339-8.043-1.0559-9.6401-2.7884-.6835-.871-1.0131-1.8853-.9452-2.9075a5.77 5.77 0 0 1 1.0775-.1636c2.7926-.239 5.6149-.1487 8.3736.2677 2.722.5205 5.3494 1.8218 6.493 3.837l.0472.0223z" fill="#000" opacity=".1"/><path d="M501.7048 380.627c1.3503 1.629 2.751 3.3068 4.6632 4.276 2.2058 1.1077 4.7974 1.1322 7.2716 1.0833a179.4357 179.4357 0 0 0 30.3863-3.258 19.5857 19.5857 0 0 0 3.3548-.8714 17.3598 17.3598 0 0 0 3.3549-2.0525c3.296-2.2968 6.6425-4.6425 9.1502-7.7457 2.9777-3.7466 4.8505-8.209 5.418-12.9095 2.382-2.1258 3.6485-5.1638 4.8394-8.0878.589-1.2405.963-2.567 1.1071-3.9258.0587-1.3928-.889-2.8507-.6206-4.219.4564-2.3624 1.6895-4.5172 3.5142-6.1412.3884-.268.6815-.6465.8387-1.0833a1.668 1.668 0 0 0-.193-1.0507c-1.0232-2.2072-3.3548-3.6244-5.7702-4.2027a25.561 25.561 0 0 0-7.4394-.2932c-.826.1525-1.639.3648-2.4322.6353l-1.7361 4.4226a5.5566 5.5566 0 0 1-1.1323 2.02c-.3837.3412-.793.6543-1.2245.9366-1.7872 1.4707-2.7025 3.7095-2.4406 5.9701-3.2484 1.2256-4.9587 4.69-3.9084 7.9168-2.6487.555-4.811 2.405-5.7116 4.8869a3.5806 3.5806 0 0 1-.7464 1.523c-.561.4201-1.2545.6388-1.9626.619-1.9626.114-3.6736 1.629-5.4432.8145-2.0168-.9134-4.2689-1.2198-6.4665-.8796a4.9784 4.9784 0 0 1-1.3838.1222 3.7896 3.7896 0 0 1-1.1323-.3828 9.1508 9.1508 0 0 0-2.5664-.9774c-.9254-.1921-1.88.166-2.4323.9122-.6206-.6597-.9896-1.5068-1.5516-2.2154-.5138-.768-1.4268-1.1924-2.3651-1.0995.587-.505 0-1.5231-.78-1.7104a10.9307 10.9307 0 0 0-2.3568.0814c-2.0464 0-3.6232-1.8163-5.611-2.2887-1.8283-.4316-4.269.0896-5.2083-1.4986-.327-.562-.3942-1.3276-.9561-1.629a1.8948 1.8948 0 0 0-1.2413-.1384 12.2061 12.2061 0 0 0-3.7322 1.0995c-1.9207 7.3303-.9142 14.8561.5451 22.2353.539 3.327 1.9515 6.4631 4.1013 9.106z" fill="#D6DDE5"/><path d="M501.9572 408.5518L493 428c.969-1.8058 3.0094-2.5434 4.6243-3.654 2.0392-1.5938 3.5716-3.8262 4.388-6.3922a42.5474 42.5474 0 0 0 1.6938-7.876c.1811-1.2292.5593-2.9587 0-4.0778-.9927.2289-1.3235 1.6447-1.749 2.5518zM475.333 424.8825c-1.9814 2.2111-4.4023 3.839-6.5764 5.7976-5.0885 4.579-8.7121 10.8467-12.251 17.0012-1 1.6088-1.8404 3.337-2.5056 5.1535.4163.4004 1.0331 0 1.4494-.4266l6.8849-6.8248c.85-.7764 1.6253-1.6517 2.313-2.6116 1.195-1.8193 1.727-4.0827 2.814-5.9891 1.1819-1.825 2.592-3.4465 4.1864-4.814 1.5805-1.532 8.8432-8.4701 7.0776-11.1687-1.303.6964-2.3515 2.6986-3.3923 3.8825z" fill="#000" opacity=".1"/><path d="M490.7694 342.4407a22.1983 22.1983 0 0 0-7.8315-2.5766 16.5798 16.5798 0 0 0-4.9724-.3562c-1.5415.1905-3.025.787-4.5747.8285-2.1796.1242-4.2597-.7622-6.3647-1.3339-2.105-.5716-4.5332-.8285-6.2984.4722a2.7268 2.7268 0 0 1-1.3757.7291 2.4865 2.4865 0 0 1-1.4171-.696c-3.066-2.1939-7.2427-1.9738-10.0609.5303-4.011 3.7613-3.5552 11.1099-8.2873 13.9682-1.2929.8284-2.9503 1.2012-3.7128 2.4854a9.9408 9.9408 0 0 1-.6381 1.2096 3.3149 3.3149 0 0 1-1.127.8284 21.9052 21.9052 0 0 0-3.8786 2.2287 5.5174 5.5174 0 0 0-2.2293 3.7364 7.065 7.065 0 0 0 .6796 3.14c4.7176 11.5624 16.2044 18.905 28.6826 18.3341a4.4927 4.4927 0 0 0 3.0083-.9361 5.741 5.741 0 0 0 1.0525-1.7316c2.2127-4.6311 6.3647-8.0528 9-12.4271 1.5664-2.6263 2.5774-5.5674 4.2183-8.1523 2.4862-3.9187 6.2487-6.8183 9.9449-9.6269 2.0884-1.5824 4.4005-3.2476 7.0194-3.14 2.3287.0995 4.0276.2238 3.1657-2.6262a9.1139 9.1139 0 0 0-4.0028-4.888z" fill="#B7BFCB"/><path d="M503.1463 660.7332c-1.6452 1.4218-3.8987 2.0414-6.0837 2.4783a117.6363 117.6363 0 0 1-15.1406 1.7395l-4.944.3496c-4.824.3415-9.6567.683-14.498.699a108.1003 108.1003 0 0 1-17.8396-1.4298c-.5464-.019-1.0592-.2496-1.4138-.6355-.1837-.3186-.2584-.6816-.2142-1.0406.1036-5.5896.8388-11.1539 2.1935-16.6015.557-2.232 4.884 2.7802 5.0812 2.9946.906 1.186 2.3657 1.9024 3.933 1.9303 4.9782.2542 10.5563-2.5498 14.5064-5.044a19.3067 19.3067 0 0 1 2.6905-1.549 8.356 8.356 0 0 1 2.1764-.5719c2.5615-.221 5.1364.2626 7.4032 1.39 2.9733 1.3663 5.5781 3.3283 8.5686 4.766 2.3945 1.138 4.9781 1.8952 7.643 2.24 2.6906.3416 5.9123.5085 7.2919 2.669 1.0967 1.7873.2742 4.202-1.3538 5.616z" fill="#384965"/><path d="M501.8293 660.6807c-1.6399 1.436-3.8861 2.0617-6.0641 2.5029a115.7984 115.7984 0 0 1-15.092 1.7568l-4.9282.353c-4.8086.345-9.6258.6899-14.4515.706a105.5403 105.5403 0 0 1-17.7824-1.444c-.5436-.0163-1.055-.2462-1.4093-.6338-.4634-.5773-.8346-1.2151-1.1018-1.8932.1025-5.6155 1.7082-11.271 3.0748-16.7662.5551-2.2542 4.8684 2.8078 5.0648 3.0244.903 1.1976 2.3581 1.9211 3.9204 1.9493 4.9623.2567 10.5225-2.575 14.46-5.094a19.1836 19.1836 0 0 1 2.6818-1.5643 8.243 8.243 0 0 1 2.1695-.5776c-.6406 3.3532-5.7567 7.4044-8.4044 8.6398-5.3467 2.4949-11.7013 1.2434-17.663 1.5402a2.6976 2.6976 0 0 0-1.2554.2808c-.709.4492-.7517 1.4039-.7346 2.206.0513 1.3318.2306 2.904 1.469 3.578.6168.2801 1.297.415 1.9816.393a298.05 298.05 0 0 0 44.0462-1.452c2.459-.1527 4.8786-.6586 7.1745-1.5001 1.5014-.659 2.9007-1.5064 4.1594-2.519 1.879 1.3799.3075 5.086-1.3153 6.514z" fill="#E8EAF2"/><path d="M490.087 313.1503c-.0843 2.2717 1.4834 6.6569-2.8235 5.4503-2.5284-.7322-3.287-3.7362-6.5403-3.0705-3.2533.6657-4.0118 4.6349-5.1075 7.2227-1.8174 4.1753-5.5997 7.2-10.1139 8.0881a6.1957 6.1957 0 0 1-2.7897 0c-2.0987-.5908-3.2955-2.7293-4.1552-4.7097a36.3681 36.3681 0 0 1-1.8373-5.1757 20.8175 20.8175 0 0 1-.6658-3.7944 16.004 16.004 0 0 1 0-2.6212c.3877-5.1674 3.3712-9.8771 7.1808-13.4385 3.8096-3.5615 8.4283-6.141 13.0216-8.679a19.425 19.425 0 0 1 4.8041-2.1135 16.3956 16.3956 0 0 1 5.057-.1997 17.7602 17.7602 0 0 1 6.456 1.4978 9.0281 9.0281 0 0 1 2.2672 1.5727c.9561.8716 1.6403 1.9946 1.9722 3.2369.8428 3.3284-1.3316 6.349-3.0847 8.9868-1.6014 2.3382-3.5314 4.8179-3.641 7.7469z" fill="#B7BFCB"/><path d="M562 360c-.9506-2.327-4.9446-8.7662-3.7935-11a28.3465 28.3465 0 0 1 3.0435 5.28c.75 1.8192.157 4.2392.75 5.72zM494.6409 300.2437a18.835 18.835 0 0 1-1.2767 1.9268 22.4015 22.4015 0 0 1-2.9544 3.2171c-.6465.585-1.3094 1.1269-1.9969 1.643a31.2052 31.2052 0 0 1-4.0346 2.5375c-4.1542 2.032-8.477 3.6589-12.9142 4.86l-8.6259 2.6408c-1.0639.8602-3.0035 2.357-5.1395 3.9311a22.7842 22.7842 0 0 1-.6465-3.9225 17.6095 17.6095 0 0 1 0-2.7095c.3765-5.3418 3.2736-10.2104 6.9727-13.892 3.6991-3.6816 8.1839-6.3482 12.6441-8.9718 1.4528-.9486 3.0223-1.6837 4.6648-2.1849a14.9708 14.9708 0 0 1 4.9104-.2064c2.1642.0932 4.2917.6187 6.2689 1.5483.809.4196 1.5516.968 2.2014 1.6258a8.9277 8.9277 0 0 1 1.1049 2.4601c.5401 1.8494-.2128 3.8278-1.1785 5.4966z" fill="#000" opacity=".1"/><path d="M494.6674 300.3112a18.4717 18.4717 0 0 1-1.2722 1.8918 22.119 22.119 0 0 1-2.9438 3.1585c-.6442.5743-1.3048 1.1063-1.9898 1.613a32.1222 32.1222 0 0 1-4.0202 2.4914c-4.1394 1.995-8.4468 3.5922-12.8682 4.7715l-8.595 2.5843c-3.001 2.3562-13.0476 10.0582-14.7356 9.0955-1.9897-1.1317 8.9131-9.1293 8.9131-9.1293l.4974.397c-1.6309-1.0389-2.4464-3.4457-2.7889-5.5317-.636-3.7328-.9378-7.6007-.0815-11.2913.8562-3.6906 2.9928-7.187 6.2465-8.9097 1.4434-.777 3.1966-1.2922 4.2405-2.4745a3.711 3.711 0 0 0 .4158-.5827 1.7756 1.7756 0 0 0 .1631-.304 3.6978 3.6978 0 0 1 .4567-.9206c.5953-.7094 1.6799-.4982 2.585-.38h.2936c.1603.0086.3209.0086.4811 0 3.262.076 6.3689-1.7904 9.639-1.7904 3.5798 0 6.6297 2.145 9.7856 3.6146.636.2955 1.2395.5658 1.8103.8445 2.2833 1.0979 3.9958 2.2718 4.8928 5.388.5872 1.8918-.163 3.8426-1.1253 5.4641z" fill="#B7BFCB"/><path d="M469.8216 286.0195c.3236.25.1967.5709-.2978.7531-.3454.113-.7532.1794-1.177.1915-.3056.019-.6133.0299-.9217.0325-.4149.0146-.8312-.0177-1.2124-.0942a2.3155 2.3155 0 0 1-.2127-.0616c.1362-.0691.2573-.1441.3616-.224.0709.026.1418.0195.4183 0a13.6414 13.6414 0 0 0 1.5173-.1169c.2048-.0255.3972-.0684.5672-.1266.253-.0986.44-.228.5389-.3733l.4183.0195zM456 315.09c.3335.3479.7057.5792 1.0942.68.2765.1171.5586.194.843.23.7246-.0618 1.4307-.4042 2.0628-1" fill="#000" opacity=".1"/></g></svg>